<?xml version="1.0" encoding="utf-8"?>
<!-- Generator: Adobe Illustrator 17.0.0, SVG Export Plug-In . SVG Version: 6.00 Build 0)  -->
<!DOCTYPE svg PUBLIC "-//W3C//DTD SVG 1.1//EN" "http://www.w3.org/Graphics/SVG/1.1/DTD/svg11.dtd">
<svg version="1.1" id="Layer_1" xmlns="http://www.w3.org/2000/svg" xmlns:xlink="http://www.w3.org/1999/xlink" x="0px" y="0px"
	 width="60px" height="60px" viewBox="0 0 60 60" enable-background="new 0 0 60 60" xml:space="preserve">
<path fill-rule="evenodd" clip-rule="evenodd" d="M0,5.625C0,2.512,2.525,0,5.625,0h48.75C57.487,0,60,2.512,60,5.625v48.75
	C60,57.487,57.487,60,54.375,60H5.625C2.525,60,0,57.487,0,54.375V5.625z M8,12.375c0,2.075,1.688,3.75,3.75,3.75h0.625
	c2.075,0,3.75-1.675,3.75-3.75V11.75c0-2.075-1.675-3.75-3.75-3.75H11.75C9.688,8,8,9.675,8,11.75V12.375z M26.562,15.625h21.25
	c2.25,0,4.062-1.825,4.062-4.062c0-2.25-1.812-4.062-4.062-4.062h-21.25c-2.237,0-4.062,1.812-4.062,4.062
	C22.5,13.8,24.325,15.625,26.562,15.625z M8.125,51h43.75V21.625H8.125V51z"/>
</svg>
